<svg width="42px" height="36px" viewBox="0 0 42 36" version="1.1" xmlns="http://www.w3.org/2000/svg" xmlns:xlink="http://www.w3.org/1999/xlink">
    <g id="Symbols-" stroke="none" stroke-width="1" fill="none" fill-rule="evenodd">
        <g id="1366/Nav+footer/Navigation" transform="translate(-662, -10)" fill="#202020">
            <g id="LOGO-BLK" transform="translate(662, 10)">
                <path d="M40.9740546,8.547164 C40.9740546,3.80865317 36.8260754,0 32.0985136,0 L23.0446502,0 L23.0446502,3.58715155 L32.1431638,3.58715155 C35.3097783,3.58715155 37.2722294,5.75717642 37.2722294,8.547164 C37.2722294,11.3814864 35.3543241,13.8171405 32.1431638,13.8171405 L23,13.8171405 L23,17.4042575 L29.6901173,17.4042575 L38.1641894,31 L42,31 L33.436558,17.3157259 C37.584398,16.6071281 40.9740546,12.8871446 40.9740546,8.547164 Z" id="Fill-1"></path>
                <polyline id="Fill-2" points="16.9860202 26.528563 16.9860202 0 13 0 13 30 32 30 29.785575 26.528563 16.9860202 26.528563"></polyline>
                <path d="M1.8348154,36 C4.34217508,34.2559461 6,31.2153398 6,27.9117848 L6,0 L2.24527575,0 L2.24397363,27.9601799 C2.24397363,30.1535677 1.40772048,31.8779717 0,32.9216211 L1.8348154,36" id="Fill-4"></path>
            </g>
        </g>
    </g>
</svg>