<?xml version="1.0" encoding="utf-8"?>
<!-- Generator: Adobe Illustrator 27.5.0, SVG Export Plug-In . SVG Version: 6.00 Build 0)  -->
<svg version="1.1" id="Layer_1" xmlns="http://www.w3.org/2000/svg" xmlns:xlink="http://www.w3.org/1999/xlink" x="0px" y="0px"
	 viewBox="0 0 1080 1080" style="enable-background:new 0 0 1080 1080;" xml:space="preserve">
<style type="text/css">
	.st0{fill:#0248F7;}
	.st1{fill:#E0FF01;}
	.st2{fill:#E5E5E5;}
	.st3{opacity:0.2;}
</style>
<path class="st0" d="M385.18,490.96c0.42-1.27,0.08-2.43-0.92-3.32c-1.31-1.17-2.63-1.34-4.5-0.76
	c-15.05,4.65-21.17,19.86-16.15,34.24c3.02,8.65,8.87,15.08,16.28,20.2c9.22,6.38,19.57,9.72,30.69,10.71
	c2.48,0.22,4.97,0.33,7.45,0.35l4.42-0.39c0,0,4.65,5.78,6.65,13.65l-0.02-0.02c4.53,15.31-2.19,31.21-18.15,39.28
	c-21.37,10.8-50.72,2.55-62.87-17.86c-4.95-8.32-6.56-16.83-4.35-25.41c1.59-8.4,7.71-14.13,7.71-14.13l4.02,4.02
	c8.77,7.54,17.52,15.1,26.29,22.65c0.41,0.36,0.82,0.75,1.3,1.03c1.04,0.61,2.04,0.45,2.86-0.43c0.82-0.88,0.84-1.91,0.18-2.89
	c-0.27-0.4-0.69-0.72-1.05-1.04c-12.1-10.47-24.23-20.89-36.28-31.41c-8.17-7.14-14.21-15.74-16.22-26.55
	c-2.82-15.15,2.42-27.42,14.41-36.84c7.72-6.07,16.73-9.18,26.41-10.35c2.74-0.33,5.52-0.41,8.37-0.62
	c19.47,0.69,36.54,7.08,49.96,21.73c6.63,7.25,11.06,15.73,11.66,25.64c0.76,12.46-2.8,23.23-14.06,30.19
	c-5.18,3.2-10.94,3.95-16.95,3.53c-12.77-0.89-24.46-4.51-34.21-13.14c-4.07-3.6-7.31-7.85-9.27-12.98
	c-3.44-8.98-1.58-18.6,6.56-23.75c3.41-2.16,4.06-1.86,6.54-2.87C383.36,492.86,384.68,492.49,385.18,490.96z"/>
<g>
	<path d="M490.13,530.54c-0.59-3.9-2.21-5.3-4.93-5.3c-2.58,0-4.79,1.84-4.79,4.27c0,3.24,2.94,4.71,8.91,7.29
		c12,5.15,15.02,9.5,15.02,16.64c0,10.53-7.22,16.71-19,16.71c-11.85,0-19.66-6.18-19.66-17.89v-1.18h13.84
		c0.07,4.49,2.28,7.44,5.74,7.44c2.87,0,5.23-2.28,5.23-5.23c0-4.34-6.04-6.26-10.97-8.25c-8.91-3.61-12.96-8.32-12.96-15.39
		c0-9.28,8.98-16.05,19-16.05c3.61,0,6.77,0.81,9.65,2.28c5.82,3.02,8.61,7.36,8.69,14.65H490.13z"/>
	<path d="M541.23,569.13v-4.42h-0.15c-1.77,3.61-6.63,5.82-12,5.82c-12.08,0-20.47-9.5-20.47-21.87c0-12.08,8.76-21.8,20.47-21.8
		c5.01,0,9.65,1.99,12,5.74h0.15v-4.34h12.22v40.87H541.23z M541.23,548.66c0-5.74-4.64-10.38-10.38-10.38
		c-5.6,0-10.01,4.64-10.01,10.53c0,5.67,4.49,10.31,10.16,10.31C536.74,559.11,541.23,554.55,541.23,548.66z"/>
	<path d="M559.85,569.13v-54.49h12.22v54.49H559.85z"/>
	<path d="M583.81,569.13v-31.59h-6.04v-9.28h6.04v-13.62h12.22v13.62h5.89v9.28h-5.89v31.59H583.81z"/>
	<path d="M607.49,568.43v-54.49h12.22v16.86c3.24-3.46,7.36-4.64,11.63-4.64c10.6,0,20.32,7.95,20.32,21.57
		c0,12.59-8.03,22.09-20.62,22.09c-4.93,0-9.87-2.28-11.71-5.74h-0.15v4.34H607.49z M639.44,547.96c0-5.45-4.2-10.38-10.09-10.38
		c-5.67,0-10.09,4.64-10.09,10.31c0,6.04,4.27,10.53,9.94,10.53C634.95,558.41,639.44,553.85,639.44,547.96z"/>
	<path d="M688.83,568.43v-4.42h-0.15c-1.77,3.61-6.63,5.82-12,5.82c-12.08,0-20.47-9.5-20.47-21.87c0-12.08,8.76-21.8,20.47-21.8
		c5.01,0,9.65,1.99,12,5.74h0.15v-4.34h12.22v40.87H688.83z M688.83,547.96c0-5.74-4.64-10.38-10.38-10.38
		c-5.6,0-10.01,4.64-10.01,10.53c0,5.67,4.49,10.31,10.16,10.31C684.34,558.41,688.83,553.85,688.83,547.96z"/>
	<path d="M738.58,564.34c-1.84,3.9-6.41,6.11-11.41,6.11c-11.93,0-20.54-9.2-20.54-21.5c0-12.52,8.76-22.02,20.54-22.02
		c5.3,0,9.35,1.99,11.34,5.15h0.15v-3.83h12.22v36.52c0,5.52-0.74,9.72-2.21,12.52c-2.94,5.67-10.97,10.01-21.21,10.01
		c-11.56,0-19.07-6.55-20.1-14.36h14.14c1.4,3.02,4.12,4.05,7.14,4.05c6.19,0,9.94-4.05,9.94-11.49V564.34z M738.65,548.88
		c0-5.96-4.05-10.53-10.01-10.53c-5.45,0-9.79,4.57-9.79,10.16c0,5.74,3.9,10.53,9.79,10.53
		C734.6,559.04,738.65,554.77,738.65,548.88z"/>
</g>
</svg>
